<svg xmlns="http://www.w3.org/2000/svg" width="33.63" height="30" viewBox="0 0 33.63 30">
  <path id="path2900" d="M49.87,56.9a16.223,16.223,0,0,1-3.582-3.334,27.059,27.059,0,0,1-4.512-8.1c-.625-1.9-.839-3.933-1.645-5.757-.843-1.325.144-2.774,1.6-3.2.646-.124,1.783-.734.411-.3-1.23.9-1.349-.819-.088-.928a1,1,0,0,0,.883-1.453c-.924-.6,2.24-1.265.648-2.163-1.658-1.789,2.32-2.134,1.338-.1-.235,1.563,2.78-.286,2.08,1.518.711.867,2.662.2,2.614,1.413,1.036.071,1.391.943,2.363,1.01,1.008.455,2.834.814,3.177,1.949-1,.791-3.315-1.635-3.426.556.3,3.236.225,6.57,1.409,9.652a14.11,14.11,0,0,0,3.144,4.789,13.755,13.755,0,0,0,4.382,3.269,18.063,18.063,0,0,0,4.5,1.393c.628-.48,1.737-2.266,2.717-1.513.046.846-1.945,1.769-.094,1.675,1.087-.328,1.841.841,2.736-.213.825.977,3.427-.624,2.841,1.372-.793.512-1.95.2-2.745.907-1.31-.654-2.353.586-3.8.429a27.951,27.951,0,0,1-4.883.408,29.688,29.688,0,0,1-7.964-1.234A16.142,16.142,0,0,1,49.87,56.9Zm2.263.98a15.9,15.9,0,0,0,4.31,1.438c2.438.339,4.955.861,7.4.385-1.107-.5-2.252.195-3.355-.358A12.281,12.281,0,0,1,56.4,59.1a37.69,37.69,0,0,1-4.612-2.034c-1.79-.654.926.838,1.409.959,1.119.635-1.23-.326-1.561-.59-.937-.526-1.056-.416-.093.118.194.114.386.233.589.329ZM49.465,56c1.359.5-.006-.955-.629-.871-.276-.479-1.054-.781-.505-1.038-.987.343-1.034-1.3-1.5-1.068-1.044-.33-.406-1.5-1.651-2.215-.114-.756-1.236-1.412-1.594-2.552-.158-.584-1.268-2.26-.586-.7a22.035,22.035,0,0,0,2.452,4.073A8.4,8.4,0,0,0,48.1,54.889c.405.389.8.984,1.369,1.106Zm-3.914-4.3C45.6,51.493,45.8,52.142,45.551,51.7Zm5.541,4.9C51.393,56.464,50.66,56.429,51.092,56.6Zm.738.269C51.753,56.5,51.493,57.075,51.83,56.868Zm.923.385C53.192,56.834,52.076,56.989,52.753,57.253Zm1.582.882C54.6,57.74,53.48,57.986,54.335,58.135ZM51.3,56.017C51.98,55.575,50.415,56.011,51.3,56.017Zm.693.345C51.97,56.129,51.743,56.467,51.989,56.362Zm3.461,2.16c.556.351,3.249.77,1.563.144C56.732,58.726,53.887,57.862,55.451,58.522Zm-5.495-4.28C49.9,54.009,49.092,53.984,49.956,54.243Zm1.611.939C51.987,54.889,50.7,54.956,51.567,55.182Zm1.355.831C53.524,55.786,51.946,55.785,52.923,56.013ZM49.3,53.529c.653.5,2.633.064,1-.3-.743-.4-2.419-.667-1.277.239l.277.06Zm4.54,2.771C54.112,55.837,52.7,56.035,53.841,56.3Zm-1.38-1.1c1.6.452-1.343-1.01-.394-.166l.21.1.184.071Zm2.766,1.6c1.512.014-1.366-.208,0,0Zm-6.509-4.148C48.659,52.372,48.345,52.677,48.718,52.654Zm9.066,5.583C57.825,57.728,57.291,58.615,57.785,58.237Zm-6.486-4C51.207,53.966,50.826,54.223,51.3,54.234Zm-2.437-1.757C49.73,52.425,47.673,52.095,48.862,52.477Zm-2.887-1.866C45.867,50.2,45.03,49.863,45.975,50.611Zm7.579,4.81C53.395,55.239,53.479,55.46,53.554,55.421Zm4.717,2.895C58.256,58.039,58.014,58.42,58.271,58.316ZM53.136,54.99C53.221,54.633,52.4,54.882,53.136,54.99Zm-3.514-2.227C50.268,52.693,48.587,52.326,49.622,52.763Zm5.945,3.694C56.573,56.058,54.586,56.262,55.567,56.456Zm-3.092-2.1c1.16.15-1.38-.789-.254-.084l.254.084Zm4.031,2.479c1.083-.647.726,1.516,1.837.183,1.1-.8-.947.989.4.143.977-.653,2.42.31,3.332.624.656-.032,1.293.567,1.965.2,1.294-.348-2.53-.517-1.528-1.135a2.455,2.455,0,0,1-2.641-1.169,5.441,5.441,0,0,1-3.526-2.161c-.27-.441.39.062-.233-.659a9.633,9.633,0,0,1-1.737-2.385c-.642-.342-.716-1.35-.781-.034.005-.831-.775-1.39-.965-1.157,0-.8.835-.4.248-.991-.126-.829-.542-1.693-.667-2.629-.194-.451-.027-1.418-.663-.4-.231,1.08-.077-1.327.283-.533.472-.81-.17-.714-.2-.6.308-.683.195-1.652-.08-1.283.164-.724.259-2.665-.245-2.321.306-.757.58-3.465-.748-2.432a5.642,5.642,0,0,0-1.91.414c1.381.761-.139.275-.7.154-.073.7-.63.4-1.326.407,1.111.137-.541,1.136-1.178.748-.828.4.714,1.383.017,1.688.086.46-1.268-.166-1.162.9-.8-.338-.111,1.261.291.72,1.367.37.962,1.213,1,2.014-.223.467-1.1-1.1-.2-1.025-.713-1.159-.789-.419-1.382.119-.138.039,1.512.766.477,1.125.911.141.937.938,1.122,1.442.548.57.435-.63,1.091.056-.415-.611-2.2-1.72-.762-1.364-.008-.614-.259-1.11.18-1.1.435-.788-.456,1.943.525.941.271-.119.339-.789.827.063.709.7.256,1.2-.744.564.179.607,1.338.824,1.12,1.773.231.835.554.527.835.479.221.811.346.215.357-.171,1.011.216.774.814,1.091,1.232.7.314-1-2.132.2-.736,1.258,1.136.472,1.611-.657,1.428.715-.058.945.966,1.839.93.815.388,1.367,1.878-.038,1.257-.487-.439-2.212-.982-.8-.146a33.307,33.307,0,0,1,3.59,1.719c.9.641,1.286,1.376,1.627,1.521-.755.361-2.275-.288-1.146-.487-.7-.128-1.5-.484-.821.393.573.479,2.031.428,2.293.482-.222.488-.6.527.009.565-.681.363.219.419.282.627ZM55.112,52.9c-.415-.434-.522-1.246-.074-.539.23.092.736,1.327.074.539Zm4.538,2.883C59.909,55.767,59.658,55.98,59.65,55.783Zm-5.193-3.946C54.441,51.182,54.607,52.343,54.457,51.837Zm-.451-.607C53.484,50.223,54.663,51.516,54.006,51.23ZM48.54,47.458C48.846,47.376,48.691,47.982,48.54,47.458Zm4.35,2.358C53.078,49.109,53.111,50.409,52.89,49.816Zm-3.073-2.137C49.6,47.289,50.27,48.044,49.817,47.679Zm2.638.846c-.494-1.107.35-.6.109.181l-.109-.181Zm-4.549-3.033a3.514,3.514,0,0,1-.469-1.754c.106.53,1.127,2.28.5.725-.692-1.3.827.423.983.748.073.323-.427-.088-.088.67C48.215,45.017,48.468,46.357,47.906,45.491ZM46.5,44.522C46.558,43.678,46.822,45.1,46.5,44.522Zm.632.218C47.434,44.1,47.644,45.628,47.132,44.74Zm-1.521-1.177c-.523-.52-.9-1,.024-.323.357.014-.793-1.09.086-.351C46.646,43.058,46.178,44.406,45.611,43.563Zm.8-.021C46.714,43.241,46.572,43.839,46.41,43.542Zm.492.158C46.441,42.836,47.461,44.062,46.9,43.7Zm-.977-.934c-1.521-1.354,1.912.708.249.251l-.249-.251h0ZM50.284,45.3c-.658-.395-.174-2.779.05-1.148.64-.207-.035.842.442.832C50.7,45.645,50.487,45.883,50.284,45.3Zm1.612.953C51.961,45.533,52.032,46.743,51.9,46.252Zm-.28-.277C51.689,45.668,51.624,46.336,51.616,45.975Zm-5.393-3.654c-.977-1.349,2.841,1.364.626.342C46.618,42.6,46.339,42.581,46.223,42.321Zm3.1,1.646c-.092-1.136.207.188,0,0Zm2.357,1.512C51.868,44.833,51.7,45.907,51.685,45.479Zm-5.313-3.673c.581-.124,2.407,1.02.73.327C46.917,41.927,46.519,42.021,46.373,41.806Zm4.989,2.486c.062-1.161.347-.694,0,.166l0-.166h0ZM46.805,41.4c.237-.347-.628-1.57.125-.439.325.259.942.433.4.542C48.184,42.261,47.119,41.71,46.805,41.4Zm4.309,2.528C51.278,42.607,51.259,44.7,51.115,43.93Zm-4.8-3.749C46.492,40.1,46.406,40.421,46.311,40.181Zm1.124.669C47.724,40.243,47.969,41.527,47.435,40.85Zm3.171,1.764C50.6,42.38,50.666,42.953,50.606,42.614Zm-.184-.407C49.982,41.121,50.832,42.782,50.422,42.207Zm-.27-.712c-.074-.449.251.564,0,0Zm.44-.715c-.3-.532.381-2.345.458-1.221-.319.876-.092,1.366.13.191.411-.925-.089,1.825-.588,1.03Zm.452-2.7C51.175,37.922,51.073,38.279,51.044,38.084Zm-.755,14.872C50.11,52.8,50.311,53.055,50.289,52.955Zm1.555.786c.865.222.86-.135.079-.24-.42-.391-1.747-.806-.56-.049C51.441,53.652,51.69,53.648,51.844,53.742ZM48.773,51.7c.476.355,1.795,1.007.679.135.376-.437-.72-.67-.356-.962-.925-.566-.73-.516-.082-.5-1.112-.5.16-.46.1-.714-.429-.085-2.129-.756-1.129.055-1.017-.519-.242.193-.55.118-1.04-.284.926.792-.165.525.6.473,1.606,1.211.252.5-.178.257.969.646,1.25.841Zm1.626.934C52.376,53.274,49.43,51.858,50.4,52.637Zm8.324,5.043C58.749,57.287,58.453,58.014,58.723,57.679Zm.856.36c.456-.442.019.7.756-.108.008-.582-.023-.925-.847-.219C59.26,57.839,59.159,58.375,59.579,58.039ZM46,49.51C45.858,48.96,45.016,48.962,46,49.51Zm.914.6C46.572,49.546,45.7,49.6,46.911,50.109Zm5.2,3.134c.507.451,2.331.331.616.055C52.471,52.923,51.113,53.014,52.109,53.243Zm7.145,4.412C60.034,57,58.5,57.948,59.253,57.656Zm1.624,1.116C60.883,58.562,60.541,58.864,60.878,58.772Zm0-.294c.865-.916-.838.054,0,0ZM43.751,47.629c-.737-1.052-.458-1.524-1.169-2.383-.135-.657-1.219-2.147-.561-.568.6.923.782,2.353,1.73,2.951ZM60.609,58.186C62.2,57.158,59.956,57.738,60.609,58.186Zm1.215.476C62.62,57.978,61.32,58.519,61.824,58.662Zm-16.1-10.314C45.955,48.009,45.138,48.3,45.727,48.348ZM61.57,58.337c.771-.5-.178-.421-.14.046l.14-.046Zm-10.47-6.6C51.073,51.4,50.693,51.767,51.1,51.738Zm.647.372C51.541,51.695,51.431,52.176,51.747,52.11Zm11.061,6.563c.988-.713-.6-.137-.207.135l.207-.135Zm-.378-.183C63.235,57.816,61.579,58.789,62.429,58.49Zm1.934,1.288C64.9,59.416,63.706,59.661,64.363,59.778ZM46.223,48.1c.725.162,2.9,1.785,1.615.112-.656-.194-.263-1.8-.932-1.514.449.75.37,1.07-.573.6-1.185-.579-.666.287-.434.525-.316.072.418.274.325.28Zm-3.3-2.607c.13-.537-1.194-2.952-.625-1.21C42.5,44.651,42.481,45.342,42.921,45.5Zm6.059,3.736C48.608,48.92,48.963,49.188,48.981,49.232Zm.919.214C49.9,48.877,48.884,49.215,49.9,49.446Zm7.963,5.02c-.152-.388-.6-.009,0,0Zm.382.279C58.188,54.527,58.024,54.786,58.245,54.745ZM61.4,56.732C61.7,56.508,61.022,56.7,61.4,56.732ZM44.57,45.917C45.439,45.581,43.64,45.677,44.57,45.917Zm12.591,7.932C57.152,53.287,56.608,53.989,57.161,53.849ZM44.227,45.118C44.785,44.929,43.711,44.993,44.227,45.118Zm1.619.784C45.836,45.717,45.675,45.972,45.846,45.9ZM65.59,58.009c.717-.145,2.351.365,2.616-.19-.871-.021-3.013-.614-3.114.142l.191.03.308.019ZM46.361,46.031C46.373,45.462,45.917,46.01,46.361,46.031ZM42.1,43.079C41.911,41.994,41.369,42.915,42.1,43.079Zm1.015.255C43.132,42.986,42.19,43.02,43.119,43.334Zm.58.285C43.532,43.483,43.568,43.79,43.7,43.619Zm3.649,2.341C47.521,45.8,46.942,45.843,47.349,45.96Zm-4.036-2.984C43.215,42.157,42.138,42.854,43.313,42.976Zm-2.081-1.35C41.2,41.248,41.03,41.769,41.232,41.626Zm.31-.234C41.491,40.944,41.276,41.45,41.542,41.393Zm1.71,1.021c.723-.284-1.317-.588-.148-.054ZM66.139,56.55C66.6,56.126,65.551,56.419,66.139,56.55ZM68.9,57.984C69.09,57.435,68.437,58.056,68.9,57.984ZM43.427,41.517C43.5,40.986,42.853,41.622,43.427,41.517Zm-2.433-1.63c-.131-.749-.113-2.064,1.137-1.62-1.669.331,1.155,2.074.8.7.7.034,1.373-.415,1,.267,1.383-.153,2.341-1.352,3.676-1.184a14.56,14.56,0,0,0,3.3-.661c.922-.066,1.809-1.059,1.3-1.647a14.282,14.282,0,0,0-3.962.327c-1.539.32-2.938.928-4.491,1.189-1.514.2.3.56-.129.64-.79.274.942.459-.1.748-.645-.123-1.317-.344-1.041-1.024-1.45.188-2.725.79-1.579,2.266h.085Zm3.495-1.78c.34-1.253,1.822,1.031.557.166A.791.791,0,0,0,44.488,38.107Zm.066-.607C45.045,37.134,44.815,37.7,44.554,37.5Zm.623.01c.044-.576,1.427.305.228.208l-.228-.208Zm.852-.343C46.341,36.8,46.119,37.49,46.03,37.167Zm.218-.146c.518-.623,2.935-.4,1.166-.061C46.94,36.6,46.577,37.171,46.248,37.021Zm3.154-.486C49.324,34.833,50.97,37.139,49.4,36.535Zm.9,0c.327-.857,1.27-.344.151-.172C50.473,36.449,50.416,36.8,50.3,36.53Zm-7.224,4.547c.978-.6-1.038-.519,0,0Zm.723.2C44.14,40.913,43.052,41.13,43.8,41.278Zm-2.13-1.512C42.225,39.337,41.006,39.6,41.667,39.766Zm28.87,18.061C70.552,57.329,70.109,58.051,70.536,57.827Zm-2.934-2C67.686,55.252,67.226,55.875,67.6,55.825Zm3.74,2.195c.781,0,2.367-.243.667-.242-.267.042-1.554.033-.667.242ZM44.433,40.926c.632-.043.989-.7-.122-.66-1.722-.178,1.52.59-.221.37C43.856,40.792,44.419,40.969,44.433,40.926Zm.557.282C44.923,40.8,44.794,41.424,44.989,41.208Zm.66-1.761C45.924,39.107,45.27,39.356,45.65,39.447Zm-2.1-3.514c1.128-.384,2.671-.815,3.2.189-.542-.652-.219-1.295.293-.341.724.965,1.086-.439.616-.763.537.667,1.147.982.359.042.856-1.03-1.714.135-2.3.123C45.44,35.31,42.819,35.852,43.547,35.933Zm.661-1.266c.643-.486,2.225.289,1.21-.483C45.32,34.1,43.2,34.769,44.209,34.667Zm2.346.1c.753.019-.325-1.012.573-.545-.147-.481-1.045-.572-1.483-.764C45.4,33.9,46.148,34.77,46.554,34.764ZM44.62,32.634C44.88,32.281,44.163,32.813,44.62,32.634Zm.959.229c1.214-.161-.309-.523-.245-.013l.245.013Zm-1.79-1.4c-.854-1.115,1.607.187.739-.98C43.8,29.9,43.095,31.138,43.789,31.463Zm10.965,5.906c.392-.695-1.618-.936-.264-.246C54.615,37.165,54.586,37.417,54.754,37.369Z" transform="translate(-39.821 -30.187)"/>
</svg>
