<svg id="HTML5_logo_resized" xmlns="http://www.w3.org/2000/svg" width="21.254" height="30" viewBox="0 0 21.254 30">
  <defs>
    <style>
      .cls-1 {
        fill: #e44d26;
      }

      .cls-2 {
        fill: #f16529;
      }

      .cls-3 {
        fill: #fff;
      }

      .cls-4 {
        fill: #ebebeb;
      }
    </style>
  </defs>
  <path id="Path_17" data-name="Path 17" class="cls-1" d="M19.318,2795.692l-8.7,2.413-8.68-2.411L0,2774H21.254" transform="translate(0 -2768.104)"/>
  <path id="Path_18" data-name="Path 18" class="cls-2" d="M5008.689,3608H5000v20.486l7.032-1.949" transform="translate(-4989.373 -3600.332)"/>
  <path id="Path_19" data-name="Path 19" class="cls-3" d="M5002.665,4860H4996v2.66h6.428m-.24,2.725H4996v9.681l5.455-1.513m-5.455-5.506h3.279l-.309,3.451-2.971.8" transform="translate(-4985.381 -4849.669)"/>
  <path id="Path_20" data-name="Path 20" class="cls-4" d="M1860.718,4868.046h5.953v-2.662h-3.522l-.242-2.725h3.764V4860H1860m1.209,13.556,5.456,1.51h.008V4872.3l-.008,0-2.967-.8-.189-2.123h-2.671" transform="translate(-1856.047 -4849.669)"/>
  <path id="Path_21" data-name="Path 21" d="M933.589,0V1.337h-1.237V0M931,0V4.045h1.352V2.691h1.237V4.045h1.352V0m.586,0V1.341h1.193v2.7h1.352v-2.7h1.19V0M943,0l-.865,1.422L941.263,0m-1.409,0V4.045h1.322v-2l.931,1.439h.023l.931-1.439v2h1.345V0m.674,0V4.045h3.254V2.708h-1.9V0" transform="translate(-929.021)"/>
</svg>
