<svg xmlns="http://www.w3.org/2000/svg" width="30" height="30" viewBox="0 0 30 30">
  <defs>
    <style>
      .cls-1 {
        fill: #f7df1e;
      }
    </style>
  </defs>
  <g id="javascript" transform="translate(0.177)">
    <rect id="Rectangle_41" data-name="Rectangle 41" class="cls-1" width="30" height="30" transform="translate(-0.177)"/>
    <path id="Path_38" data-name="Path 38" d="M178.115,295.7a3.066,3.066,0,0,0,2.777,1.709c1.166,0,1.911-.583,1.911-1.388,0-.965-.766-1.307-2.049-1.869l-.7-.3c-2.031-.865-3.381-1.949-3.381-4.241,0-2.111,1.609-3.718,4.122-3.718a4.161,4.161,0,0,1,4,2.254l-2.192,1.407a1.914,1.914,0,0,0-1.812-1.206,1.225,1.225,0,0,0-1.347,1.206c0,.844.523,1.186,1.731,1.709l.7.3c2.392,1.026,3.742,2.071,3.742,4.422,0,2.534-1.991,3.923-4.665,3.923a5.408,5.408,0,0,1-5.13-2.879Zm-9.944.244c.442.785.844,1.448,1.812,1.448.925,0,1.508-.362,1.508-1.769v-9.572h2.815v9.61c0,2.915-1.709,4.241-4.2,4.241a4.37,4.37,0,0,1-4.223-2.571Z" transform="translate(-158.125 -272.296)"/>
  </g>
</svg>
