<svg xmlns="http://www.w3.org/2000/svg" xmlns:xlink="http://www.w3.org/1999/xlink" width="29.672" height="30" viewBox="0 0 29.672 30">
  <defs>
    <style>
      .cls-1 {
        fill: none;
        stroke: #fff;
        stroke-linecap: round;
        stroke-linejoin: round;
        stroke-width: 3px;
      }

      .cls-2 {
        fill: url(#linear-gradient);
      }

      .cls-3 {
        fill: url(#linear-gradient-2);
      }
    </style>
    <linearGradient id="linear-gradient" x1="0.256" y1="0.171" x2="1.581" y2="1.3" gradientUnits="objectBoundingBox">
      <stop offset="0" stop-color="#5a9fd4"/>
      <stop offset="1" stop-color="#306998"/>
    </linearGradient>
    <linearGradient id="linear-gradient-2" x1="1.415" y1="1.879" x2="0.943" y2="1.221" gradientUnits="objectBoundingBox">
      <stop offset="0" stop-color="#ffd43b"/>
      <stop offset="1" stop-color="#ffe873"/>
    </linearGradient>
  </defs>
  <g id="Group_31" data-name="Group 31" transform="translate(-651 -2701.135)">
    <g id="Group_30" data-name="Group 30" transform="translate(651 2701.135)">
      <path id="Path_35" data-name="Path 35" class="cls-1" d="M0,60.232" transform="translate(23.757 -47.846)"/>
      <g id="g2303" transform="translate(0 0)">
        <path id="path1948" class="cls-2" d="M20.251,6.4a20.436,20.436,0,0,0-3.42.292c-3.029.535-3.579,1.655-3.579,3.72v2.728h7.157v.909H10.566A4.469,4.469,0,0,0,6.1,17.675a13.378,13.378,0,0,0,0,7.274c.509,2.119,1.724,3.629,3.8,3.629H12.36v-3.27a4.548,4.548,0,0,1,4.471-4.446H23.98a3.606,3.606,0,0,0,3.579-3.637V10.41a4,4,0,0,0-3.579-3.72A22.323,22.323,0,0,0,20.251,6.4ZM16.38,8.591a1.364,1.364,0,1,1-1.343,1.368A1.358,1.358,0,0,1,16.38,8.591Z" transform="translate(-5.591 -6.397)"/>
        <path id="path1950" class="cls-3" d="M49.49,35.054v3.178a4.59,4.59,0,0,1-4.471,4.538H37.87a3.651,3.651,0,0,0-3.579,3.637v6.815c0,1.94,1.687,3.08,3.579,3.637a11.974,11.974,0,0,0,7.149,0c1.8-.522,3.579-1.572,3.579-3.637V50.494H41.448v-.909H52.176c2.08,0,2.855-1.451,3.579-3.629a12.283,12.283,0,0,0,0-7.274c-.514-2.071-1.5-3.629-3.579-3.629ZM45.469,52.313a1.364,1.364,0,1,1-1.343,1.36A1.351,1.351,0,0,1,45.469,52.313Z" transform="translate(-26.63 -27.405)"/>
      </g>
    </g>
  </g>
</svg>
